# xmcd CD database file
#
# Track frame offsets:
#	150
#	13061
#	36322
#	54756
#	75586
#	92886
#	106627
#	129284
#	145746
#	169508
#	185087
#
# Disc length: 2642 seconds
#
# Revision: 0
# Processed by: cddbd v1.4PL0 Copyright (c) Steve Scherf et al.
# Submitted via: CDex 1.40Release
#
DISCID=810a500b
DTITLE=Arsen Shomakhov and Ragtime - Troublemaker
DYEAR=2003
DGENRE=Blues
TTITLE0=Troublemaker
TTITLE1=I am ready
TTITLE2=Dirty girl
TTITLE3=T-bone shuffle
TTITLE4=Tick-tock
TTITLE5=Don't miss your train
TTITLE6=I don't know
TTITLE7=She's dangerous
TTITLE8=Give me a sign
TTITLE9=In the cold light
TTITLE10=Troublemaker (slight return)
EXTD=YEAR: 2003 ID3G: 0
EXTT0=
EXTT1=
EXTT2=
EXTT3=
EXTT4=
EXTT5=
EXTT6=
EXTT7=
EXTT8=
EXTT9=
EXTT10=
PLAYORDER=
